<svg width="205" height="50" viewBox="0 0 205 50" fill="none" xmlns="http://www.w3.org/2000/svg">
<path d="M40.1465 28.1523C40.1465 29.0182 39.9447 29.7539 39.541 30.3594C39.1439 30.9583 38.6035 31.4141 37.9199 31.7266C37.2428 32.0391 36.4779 32.1953 35.625 32.1953C34.7721 32.1953 34.0039 32.0391 33.3203 31.7266C32.6367 31.4141 32.0964 30.9583 31.6992 30.3594C31.3021 29.7539 31.1035 29.0182 31.1035 28.1523C31.1035 27.5859 31.2109 27.0684 31.4258 26.5996C31.6471 26.1243 31.9564 25.7109 32.3535 25.3594C32.7572 25.0078 33.2324 24.7376 33.7793 24.5488C34.3327 24.3535 34.9414 24.2559 35.6055 24.2559C36.4779 24.2559 37.2559 24.4251 37.9395 24.7637C38.623 25.0957 39.1602 25.5547 39.5508 26.1406C39.9479 26.7266 40.1465 27.3971 40.1465 28.1523ZM38.3301 28.1133C38.3301 27.5859 38.2161 27.1204 37.9883 26.7168C37.7604 26.3066 37.4414 25.9876 37.0312 25.7598C36.6211 25.5319 36.1458 25.418 35.6055 25.418C35.0521 25.418 34.5736 25.5319 34.1699 25.7598C33.7728 25.9876 33.4635 26.3066 33.2422 26.7168C33.0208 27.1204 32.9102 27.5859 32.9102 28.1133C32.9102 28.6602 33.0176 29.1289 33.2324 29.5195C33.4538 29.9036 33.7663 30.1999 34.1699 30.4082C34.5801 30.61 35.0651 30.7109 35.625 30.7109C36.1849 30.7109 36.6667 30.61 37.0703 30.4082C37.474 30.1999 37.7832 29.9036 37.998 29.5195C38.2194 29.1289 38.3301 28.6602 38.3301 28.1133ZM39.8145 21.4824C39.8145 22.1725 39.6322 22.7943 39.2676 23.3477C38.903 23.901 38.4049 24.3372 37.7734 24.6562C37.1419 24.9753 36.4258 25.1348 35.625 25.1348C34.8112 25.1348 34.0853 24.9753 33.4473 24.6562C32.8158 24.3372 32.321 23.901 31.9629 23.3477C31.6048 22.7943 31.4258 22.1725 31.4258 21.4824C31.4258 20.6556 31.6048 19.9525 31.9629 19.373C32.3275 18.7936 32.8255 18.3509 33.457 18.0449C34.0885 17.7389 34.8079 17.5859 35.6152 17.5859C36.429 17.5859 37.1517 17.7389 37.7832 18.0449C38.4147 18.3509 38.9095 18.7936 39.2676 19.373C39.6322 19.9525 39.8145 20.6556 39.8145 21.4824ZM38.0078 21.5117C38.0078 21.0365 37.9069 20.6165 37.7051 20.252C37.5033 19.8874 37.2233 19.6009 36.8652 19.3926C36.5072 19.1777 36.0905 19.0703 35.6152 19.0703C35.14 19.0703 34.7233 19.1712 34.3652 19.373C34.0137 19.5684 33.737 19.8483 33.5352 20.2129C33.3398 20.5775 33.2422 21.0104 33.2422 21.5117C33.2422 22 33.3398 22.4264 33.5352 22.791C33.737 23.1556 34.0169 23.4388 34.375 23.6406C34.7331 23.8424 35.1497 23.9434 35.625 23.9434C36.1003 23.9434 36.5137 23.8424 36.8652 23.6406C37.2233 23.4388 37.5033 23.1556 37.7051 22.791C37.9069 22.4264 38.0078 22 38.0078 21.5117ZM49.1895 30.4863H49.375C50.4167 30.4863 51.263 30.3398 51.9141 30.0469C52.5651 29.7539 53.0664 29.36 53.418 28.8652C53.7695 28.3704 54.0104 27.8138 54.1406 27.1953C54.2708 26.5703 54.3359 25.929 54.3359 25.2715V23.0938C54.3359 22.4492 54.2611 21.8763 54.1113 21.375C53.9681 20.8737 53.7663 20.4538 53.5059 20.1152C53.252 19.7767 52.9622 19.5195 52.6367 19.3438C52.3112 19.168 51.9661 19.0801 51.6016 19.0801C51.1849 19.0801 50.8105 19.1647 50.4785 19.334C50.153 19.4967 49.8763 19.7279 49.6484 20.0273C49.4271 20.3268 49.2578 20.6784 49.1406 21.082C49.0234 21.4857 48.9648 21.9251 48.9648 22.4004C48.9648 22.8236 49.0169 23.2337 49.1211 23.6309C49.2253 24.028 49.3848 24.3861 49.5996 24.7051C49.8145 25.0241 50.0814 25.278 50.4004 25.4668C50.7259 25.6491 51.1068 25.7402 51.543 25.7402C51.9466 25.7402 52.3242 25.6621 52.6758 25.5059C53.0339 25.3431 53.3496 25.125 53.623 24.8516C53.903 24.5716 54.1243 24.2559 54.2871 23.9043C54.4564 23.5527 54.554 23.1849 54.5801 22.8008H55.4395C55.4395 23.3411 55.332 23.875 55.1172 24.4023C54.9089 24.9232 54.6159 25.3984 54.2383 25.8281C53.8607 26.2578 53.418 26.6029 52.9102 26.8633C52.4023 27.1172 51.849 27.2441 51.25 27.2441C50.5469 27.2441 49.9382 27.1074 49.4238 26.834C48.9095 26.5605 48.4863 26.196 48.1543 25.7402C47.8288 25.2845 47.5846 24.7767 47.4219 24.2168C47.2656 23.6504 47.1875 23.0775 47.1875 22.498C47.1875 21.821 47.2819 21.1862 47.4707 20.5938C47.6595 20.0013 47.9395 19.4805 48.3105 19.0312C48.6816 18.5755 49.1406 18.2207 49.6875 17.9668C50.2409 17.7129 50.8789 17.5859 51.6016 17.5859C52.4154 17.5859 53.1087 17.7487 53.6816 18.0742C54.2546 18.3997 54.7201 18.8359 55.0781 19.3828C55.4427 19.9297 55.7096 20.5449 55.8789 21.2285C56.0482 21.9121 56.1328 22.6152 56.1328 23.3379V23.9922C56.1328 24.7279 56.084 25.4766 55.9863 26.2383C55.8952 26.9935 55.7161 27.7161 55.4492 28.4062C55.1888 29.0964 54.8079 29.7148 54.3066 30.2617C53.8053 30.8021 53.151 31.2318 52.3438 31.5508C51.543 31.8633 50.5534 32.0195 49.375 32.0195H49.1895V30.4863ZM61.2793 24.002H62.5684C63.1999 24.002 63.7207 23.8978 64.1309 23.6895C64.5475 23.4746 64.8568 23.1849 65.0586 22.8203C65.2669 22.4492 65.3711 22.0326 65.3711 21.5703C65.3711 21.0234 65.2799 20.5645 65.0977 20.1934C64.9154 19.8223 64.6419 19.5423 64.2773 19.3535C63.9128 19.1647 63.4505 19.0703 62.8906 19.0703C62.3828 19.0703 61.9336 19.1712 61.543 19.373C61.1589 19.5684 60.8561 19.8483 60.6348 20.2129C60.4199 20.5775 60.3125 21.0072 60.3125 21.502H58.5059C58.5059 20.7793 58.6882 20.1217 59.0527 19.5293C59.4173 18.9368 59.9284 18.4648 60.5859 18.1133C61.25 17.7617 62.0182 17.5859 62.8906 17.5859C63.75 17.5859 64.502 17.7389 65.1465 18.0449C65.791 18.3444 66.2923 18.7936 66.6504 19.3926C67.0085 19.985 67.1875 20.724 67.1875 21.6094C67.1875 21.9674 67.1029 22.3516 66.9336 22.7617C66.7708 23.1654 66.5137 23.543 66.1621 23.8945C65.8171 24.2461 65.3678 24.5358 64.8145 24.7637C64.2611 24.985 63.597 25.0957 62.8223 25.0957H61.2793V24.002ZM61.2793 25.4863V24.4023H62.8223C63.7272 24.4023 64.4759 24.5098 65.0684 24.7246C65.6608 24.9395 66.1263 25.2259 66.4648 25.584C66.8099 25.9421 67.0508 26.3359 67.1875 26.7656C67.3307 27.1888 67.4023 27.612 67.4023 28.0352C67.4023 28.6992 67.2884 29.2884 67.0605 29.8027C66.8392 30.3171 66.5234 30.7533 66.1133 31.1113C65.7096 31.4694 65.2344 31.7396 64.6875 31.9219C64.1406 32.1042 63.5449 32.1953 62.9004 32.1953C62.2819 32.1953 61.6992 32.1074 61.1523 31.9316C60.612 31.7559 60.1335 31.502 59.7168 31.1699C59.3001 30.8314 58.9746 30.418 58.7402 29.9297C58.5059 29.4349 58.3887 28.8717 58.3887 28.2402H60.1953C60.1953 28.735 60.3027 29.168 60.5176 29.5391C60.7389 29.9102 61.0514 30.1999 61.4551 30.4082C61.8652 30.61 62.347 30.7109 62.9004 30.7109C63.4538 30.7109 63.929 30.6165 64.3262 30.4277C64.7298 30.2324 65.0391 29.9395 65.2539 29.5488C65.4753 29.1582 65.5859 28.6667 65.5859 28.0742C65.5859 27.4818 65.4622 26.9967 65.2148 26.6191C64.9674 26.235 64.6159 25.9518 64.1602 25.7695C63.7109 25.5807 63.1803 25.4863 62.5684 25.4863H61.2793ZM78.8574 28.1523C78.8574 29.0182 78.6556 29.7539 78.252 30.3594C77.8548 30.9583 77.3145 31.4141 76.6309 31.7266C75.9538 32.0391 75.1888 32.1953 74.3359 32.1953C73.4831 32.1953 72.7148 32.0391 72.0312 31.7266C71.3477 31.4141 70.8073 30.9583 70.4102 30.3594C70.013 29.7539 69.8145 29.0182 69.8145 28.1523C69.8145 27.5859 69.9219 27.0684 70.1367 26.5996C70.3581 26.1243 70.6673 25.7109 71.0645 25.3594C71.4681 25.0078 71.9434 24.7376 72.4902 24.5488C73.0436 24.3535 73.6523 24.2559 74.3164 24.2559C75.1888 24.2559 75.9668 24.4251 76.6504 24.7637C77.334 25.0957 77.8711 25.5547 78.2617 26.1406C78.6589 26.7266 78.8574 27.3971 78.8574 28.1523ZM77.041 28.1133C77.041 27.5859 76.9271 27.1204 76.6992 26.7168C76.4714 26.3066 76.1523 25.9876 75.7422 25.7598C75.332 25.5319 74.8568 25.418 74.3164 25.418C73.763 25.418 73.2845 25.5319 72.8809 25.7598C72.4837 25.9876 72.1745 26.3066 71.9531 26.7168C71.7318 27.1204 71.6211 27.5859 71.6211 28.1133C71.6211 28.6602 71.7285 29.1289 71.9434 29.5195C72.1647 29.9036 72.4772 30.1999 72.8809 30.4082C73.291 30.61 73.776 30.7109 74.3359 30.7109C74.8958 30.7109 75.3776 30.61 75.7812 30.4082C76.1849 30.1999 76.4941 29.9036 76.709 29.5195C76.9303 29.1289 77.041 28.6602 77.041 28.1133ZM78.5254 21.4824C78.5254 22.1725 78.3431 22.7943 77.9785 23.3477C77.6139 23.901 77.1159 24.3372 76.4844 24.6562C75.8529 24.9753 75.1367 25.1348 74.3359 25.1348C73.5221 25.1348 72.7962 24.9753 72.1582 24.6562C71.5267 24.3372 71.0319 23.901 70.6738 23.3477C70.3158 22.7943 70.1367 22.1725 70.1367 21.4824C70.1367 20.6556 70.3158 19.9525 70.6738 19.373C71.0384 18.7936 71.5365 18.3509 72.168 18.0449C72.7995 17.7389 73.5189 17.5859 74.3262 17.5859C75.14 17.5859 75.8626 17.7389 76.4941 18.0449C77.1257 18.3509 77.6204 18.7936 77.9785 19.373C78.3431 19.9525 78.5254 20.6556 78.5254 21.4824ZM76.7188 21.5117C76.7188 21.0365 76.6178 20.6165 76.416 20.252C76.2142 19.8874 75.9342 19.6009 75.5762 19.3926C75.2181 19.1777 74.8014 19.0703 74.3262 19.0703C73.8509 19.0703 73.4342 19.1712 73.0762 19.373C72.7246 19.5684 72.4479 19.8483 72.2461 20.2129C72.0508 20.5775 71.9531 21.0104 71.9531 21.5117C71.9531 22 72.0508 22.4264 72.2461 22.791C72.4479 23.1556 72.7279 23.4388 73.0859 23.6406C73.444 23.8424 73.8607 23.9434 74.3359 23.9434C74.8112 23.9434 75.2246 23.8424 75.5762 23.6406C75.9342 23.4388 76.2142 23.1556 76.416 22.791C76.6178 22.4264 76.7188 22 76.7188 21.5117ZM95.0293 23.7578V25.9258C95.0293 27.0911 94.9251 28.0742 94.7168 28.875C94.5085 29.6758 94.209 30.3203 93.8184 30.8086C93.4277 31.2969 92.9557 31.6517 92.4023 31.873C91.8555 32.0879 91.237 32.1953 90.5469 32.1953C90 32.1953 89.4954 32.127 89.0332 31.9902C88.571 31.8535 88.1543 31.6354 87.7832 31.3359C87.4186 31.0299 87.1061 30.6328 86.8457 30.1445C86.5853 29.6562 86.3867 29.0638 86.25 28.3672C86.1133 27.6706 86.0449 26.8568 86.0449 25.9258V23.7578C86.0449 22.5924 86.1491 21.6159 86.3574 20.8281C86.5723 20.0404 86.875 19.4089 87.2656 18.9336C87.6562 18.4518 88.125 18.1068 88.6719 17.8984C89.2253 17.6901 89.8438 17.5859 90.5273 17.5859C91.0807 17.5859 91.5885 17.6543 92.0508 17.791C92.5195 17.9212 92.9362 18.1328 93.3008 18.4258C93.6654 18.7122 93.9746 19.0964 94.2285 19.5781C94.4889 20.0534 94.6875 20.6361 94.8242 21.3262C94.9609 22.0163 95.0293 22.8268 95.0293 23.7578ZM93.2129 26.2188V23.4551C93.2129 22.8171 93.1738 22.2572 93.0957 21.7754C93.0241 21.2871 92.9167 20.8704 92.7734 20.5254C92.6302 20.1803 92.4479 19.9004 92.2266 19.6855C92.0117 19.4707 91.7611 19.3145 91.4746 19.2168C91.1947 19.1126 90.8789 19.0605 90.5273 19.0605C90.0977 19.0605 89.7168 19.1419 89.3848 19.3047C89.0527 19.4609 88.7728 19.7116 88.5449 20.0566C88.3236 20.4017 88.1543 20.8542 88.0371 21.4141C87.9199 21.974 87.8613 22.6543 87.8613 23.4551V26.2188C87.8613 26.8568 87.8971 27.4199 87.9688 27.9082C88.0469 28.3965 88.1608 28.8197 88.3105 29.1777C88.4603 29.5293 88.6426 29.819 88.8574 30.0469C89.0723 30.2747 89.3197 30.444 89.5996 30.5547C89.8861 30.6589 90.2018 30.7109 90.5469 30.7109C90.9896 30.7109 91.377 30.6263 91.709 30.457C92.041 30.2878 92.3177 30.0241 92.5391 29.666C92.7669 29.3014 92.9362 28.8359 93.0469 28.2695C93.1576 27.6966 93.2129 27.013 93.2129 26.2188ZM106.279 23.7578V25.9258C106.279 27.0911 106.175 28.0742 105.967 28.875C105.758 29.6758 105.459 30.3203 105.068 30.8086C104.678 31.2969 104.206 31.6517 103.652 31.873C103.105 32.0879 102.487 32.1953 101.797 32.1953C101.25 32.1953 100.745 32.127 100.283 31.9902C99.821 31.8535 99.4043 31.6354 99.0332 31.3359C98.6686 31.0299 98.3561 30.6328 98.0957 30.1445C97.8353 29.6562 97.6367 29.0638 97.5 28.3672C97.3633 27.6706 97.2949 26.8568 97.2949 25.9258V23.7578C97.2949 22.5924 97.3991 21.6159 97.6074 20.8281C97.8223 20.0404 98.125 19.4089 98.5156 18.9336C98.9062 18.4518 99.375 18.1068 99.9219 17.8984C100.475 17.6901 101.094 17.5859 101.777 17.5859C102.331 17.5859 102.839 17.6543 103.301 17.791C103.77 17.9212 104.186 18.1328 104.551 18.4258C104.915 18.7122 105.225 19.0964 105.479 19.5781C105.739 20.0534 105.938 20.6361 106.074 21.3262C106.211 22.0163 106.279 22.8268 106.279 23.7578ZM104.463 26.2188V23.4551C104.463 22.8171 104.424 22.2572 104.346 21.7754C104.274 21.2871 104.167 20.8704 104.023 20.5254C103.88 20.1803 103.698 19.9004 103.477 19.6855C103.262 19.4707 103.011 19.3145 102.725 19.2168C102.445 19.1126 102.129 19.0605 101.777 19.0605C101.348 19.0605 100.967 19.1419 100.635 19.3047C100.303 19.4609 100.023 19.7116 99.7949 20.0566C99.5736 20.4017 99.4043 20.8542 99.2871 21.4141C99.1699 21.974 99.1113 22.6543 99.1113 23.4551V26.2188C99.1113 26.8568 99.1471 27.4199 99.2188 27.9082C99.2969 28.3965 99.4108 28.8197 99.5605 29.1777C99.7103 29.5293 99.8926 29.819 100.107 30.0469C100.322 30.2747 100.57 30.444 100.85 30.5547C101.136 30.6589 101.452 30.7109 101.797 30.7109C102.24 30.7109 102.627 30.6263 102.959 30.457C103.291 30.2878 103.568 30.0241 103.789 29.666C104.017 29.3014 104.186 28.8359 104.297 28.2695C104.408 27.6966 104.463 27.013 104.463 26.2188ZM110.889 25.2324L109.443 24.8613L110.156 17.7812H117.451V19.4512H111.689L111.26 23.3184C111.52 23.1686 111.849 23.0286 112.246 22.8984C112.65 22.7682 113.112 22.7031 113.633 22.7031C114.29 22.7031 114.88 22.8171 115.4 23.0449C115.921 23.2663 116.364 23.5853 116.729 24.002C117.1 24.4186 117.383 24.9199 117.578 25.5059C117.773 26.0918 117.871 26.7461 117.871 27.4688C117.871 28.1523 117.777 28.7806 117.588 29.3535C117.406 29.9264 117.129 30.4277 116.758 30.8574C116.387 31.2806 115.918 31.6094 115.352 31.8438C114.792 32.0781 114.131 32.1953 113.369 32.1953C112.796 32.1953 112.253 32.1172 111.738 31.9609C111.23 31.7982 110.775 31.554 110.371 31.2285C109.974 30.8965 109.648 30.4863 109.395 29.998C109.147 29.5033 108.991 28.9238 108.926 28.2598H110.645C110.723 28.7936 110.879 29.2428 111.113 29.6074C111.348 29.972 111.654 30.2487 112.031 30.4375C112.415 30.6198 112.861 30.7109 113.369 30.7109C113.799 30.7109 114.18 30.6361 114.512 30.4863C114.844 30.3366 115.124 30.1217 115.352 29.8418C115.579 29.5618 115.752 29.2233 115.869 28.8262C115.993 28.429 116.055 27.9831 116.055 27.4883C116.055 27.0391 115.993 26.6224 115.869 26.2383C115.745 25.8542 115.56 25.5189 115.312 25.2324C115.072 24.946 114.775 24.7246 114.424 24.5684C114.072 24.4056 113.669 24.3242 113.213 24.3242C112.607 24.3242 112.148 24.4056 111.836 24.5684C111.53 24.7311 111.214 24.9525 110.889 25.2324ZM134.424 27.2148V28.6992H124.15V27.6348L130.518 17.7812H131.992L130.41 20.6328L126.201 27.2148H134.424ZM132.441 17.7812V32H130.635V17.7812H132.441ZM145.381 30.5156V32H136.074V30.7012L140.732 25.5156C141.305 24.8776 141.748 24.3372 142.061 23.8945C142.38 23.4453 142.601 23.0449 142.725 22.6934C142.855 22.3353 142.92 21.9707 142.92 21.5996C142.92 21.1309 142.822 20.7077 142.627 20.3301C142.438 19.946 142.158 19.64 141.787 19.4121C141.416 19.1842 140.967 19.0703 140.439 19.0703C139.808 19.0703 139.281 19.194 138.857 19.4414C138.441 19.6823 138.128 20.0208 137.92 20.457C137.712 20.8932 137.607 21.3945 137.607 21.9609H135.801C135.801 21.1602 135.977 20.4277 136.328 19.7637C136.68 19.0996 137.201 18.5723 137.891 18.1816C138.581 17.7845 139.43 17.5859 140.439 17.5859C141.338 17.5859 142.106 17.7454 142.744 18.0645C143.382 18.377 143.87 18.8197 144.209 19.3926C144.554 19.959 144.727 20.623 144.727 21.3848C144.727 21.8014 144.655 22.2246 144.512 22.6543C144.375 23.0775 144.183 23.5007 143.936 23.9238C143.695 24.347 143.411 24.7637 143.086 25.1738C142.767 25.584 142.425 25.9876 142.061 26.3848L138.252 30.5156H145.381ZM161.885 27.2148V28.6992H151.611V27.6348L157.979 17.7812H159.453L157.871 20.6328L153.662 27.2148H161.885ZM159.902 17.7812V32H158.096V17.7812H159.902ZM172.49 28.1523C172.49 29.0182 172.288 29.7539 171.885 30.3594C171.488 30.9583 170.947 31.4141 170.264 31.7266C169.587 32.0391 168.822 32.1953 167.969 32.1953C167.116 32.1953 166.348 32.0391 165.664 31.7266C164.98 31.4141 164.44 30.9583 164.043 30.3594C163.646 29.7539 163.447 29.0182 163.447 28.1523C163.447 27.5859 163.555 27.0684 163.77 26.5996C163.991 26.1243 164.3 25.7109 164.697 25.3594C165.101 25.0078 165.576 24.7376 166.123 24.5488C166.676 24.3535 167.285 24.2559 167.949 24.2559C168.822 24.2559 169.6 24.4251 170.283 24.7637C170.967 25.0957 171.504 25.5547 171.895 26.1406C172.292 26.7266 172.49 27.3971 172.49 28.1523ZM170.674 28.1133C170.674 27.5859 170.56 27.1204 170.332 26.7168C170.104 26.3066 169.785 25.9876 169.375 25.7598C168.965 25.5319 168.49 25.418 167.949 25.418C167.396 25.418 166.917 25.5319 166.514 25.7598C166.117 25.9876 165.807 26.3066 165.586 26.7168C165.365 27.1204 165.254 27.5859 165.254 28.1133C165.254 28.6602 165.361 29.1289 165.576 29.5195C165.798 29.9036 166.11 30.1999 166.514 30.4082C166.924 30.61 167.409 30.7109 167.969 30.7109C168.529 30.7109 169.01 30.61 169.414 30.4082C169.818 30.1999 170.127 29.9036 170.342 29.5195C170.563 29.1289 170.674 28.6602 170.674 28.1133ZM172.158 21.4824C172.158 22.1725 171.976 22.7943 171.611 23.3477C171.247 23.901 170.749 24.3372 170.117 24.6562C169.486 24.9753 168.77 25.1348 167.969 25.1348C167.155 25.1348 166.429 24.9753 165.791 24.6562C165.16 24.3372 164.665 23.901 164.307 23.3477C163.949 22.7943 163.77 22.1725 163.77 21.4824C163.77 20.6556 163.949 19.9525 164.307 19.373C164.671 18.7936 165.169 18.3509 165.801 18.0449C166.432 17.7389 167.152 17.5859 167.959 17.5859C168.773 17.5859 169.495 17.7389 170.127 18.0449C170.758 18.3509 171.253 18.7936 171.611 19.373C171.976 19.9525 172.158 20.6556 172.158 21.4824ZM170.352 21.5117C170.352 21.0365 170.251 20.6165 170.049 20.252C169.847 19.8874 169.567 19.6009 169.209 19.3926C168.851 19.1777 168.434 19.0703 167.959 19.0703C167.484 19.0703 167.067 19.1712 166.709 19.373C166.357 19.5684 166.081 19.8483 165.879 20.2129C165.684 20.5775 165.586 21.0104 165.586 21.5117C165.586 22 165.684 22.4264 165.879 22.791C166.081 23.1556 166.361 23.4388 166.719 23.6406C167.077 23.8424 167.493 23.9434 167.969 23.9434C168.444 23.9434 168.857 23.8424 169.209 23.6406C169.567 23.4388 169.847 23.1556 170.049 22.791C170.251 22.4264 170.352 22 170.352 21.5117Z" fill="white"/>
<rect x="1" y="1" width="203" height="48" rx="9" stroke="white" stroke-width="2"/>
</svg>
