<svg width="32" height="31" viewBox="0 0 32 31" fill="none" xmlns="http://www.w3.org/2000/svg">
<path d="M16 0C7.56115 0 0.705872 6.85529 0.705872 15.2941C0.705872 23.7329 7.56115 30.5882 16 30.5882C24.4388 30.5882 31.2941 23.7329 31.2941 15.2941C31.2941 6.85529 24.4388 0 16 0ZM16 1.32992C23.7201 1.32992 29.9642 7.57403 29.9642 15.2941C29.9642 23.0142 23.7201 29.2583 16 29.2583C8.2799 29.2583 2.03579 23.0142 2.03579 15.2941C2.03579 7.57403 8.2799 1.32992 16 1.32992ZM22.0431 8.00292C21.5883 8.00292 21.0772 8.10826 20.4794 8.32371C19.5511 8.65819 8.6327 13.294 7.39055 13.8213C6.68038 14.1232 5.35801 14.6848 5.35801 16.024C5.35801 16.9117 5.87818 17.5467 6.90222 17.9124C7.45281 18.1086 8.76049 18.5049 9.51921 18.7137C9.84105 18.8022 10.1831 18.8475 10.5348 18.8475C11.2231 18.8475 11.9157 18.676 12.4583 18.3735C12.4536 18.4852 12.4567 18.5981 12.47 18.7111C12.5518 19.4093 12.9823 20.066 13.6207 20.4683C14.0383 20.7317 17.4491 23.0171 17.9585 23.3802C18.674 23.8915 19.465 24.162 20.2443 24.162C21.7338 24.162 22.2336 22.6241 22.4743 21.8853C22.8234 20.8127 24.1306 12.0904 24.2782 10.5524C24.3787 9.49841 23.9394 8.63051 23.1029 8.2302C22.7897 8.07925 22.4321 8.00292 22.0431 8.00292ZM22.0431 9.33284C22.226 9.33284 22.3892 9.36309 22.5275 9.43025C22.842 9.58119 23.0021 9.91769 22.9535 10.4264C22.7926 12.1041 21.4885 20.6198 21.2106 21.4736C20.9725 22.2037 20.7218 22.8321 20.2443 22.8321C19.7669 22.8321 19.2453 22.6647 18.7313 22.297C18.2173 21.9299 14.8039 19.6409 14.3298 19.3423C13.9142 19.0803 13.4743 18.4272 14.0934 17.7955C14.6034 17.2755 18.4722 13.5206 18.8027 13.1901C19.0487 12.9434 18.9337 12.646 18.6923 12.646C18.6092 12.646 18.5096 12.681 18.4066 12.7654C18.0023 13.0959 12.3658 16.8676 11.8777 17.1708C11.5546 17.3716 11.0542 17.5163 10.5348 17.5163C10.3134 17.5163 10.0892 17.4897 9.87377 17.4306C9.12369 17.2238 7.85433 16.8386 7.35029 16.6591C6.86554 16.4862 6.68923 16.3206 6.68923 16.024C6.68923 15.6024 7.2843 15.3114 7.91136 15.0448C8.57366 14.7635 20.0337 9.89691 20.9301 9.57441C21.345 9.42413 21.7246 9.33284 22.0431 9.33284Z" fill="black"/>
</svg>
