<svg width="50" height="50" viewBox="0 0 50 50" fill="none" xmlns="http://www.w3.org/2000/svg">
<path d="M25 0C11.2057 0 0 11.2058 0 25C0 38.7942 11.2057 50 25 50C38.7943 50 50 38.7942 50 25C50 11.2058 38.7943 0 25 0ZM25 2.17391C37.6194 2.17391 47.8261 12.3806 47.8261 25C47.8261 37.6194 37.6194 47.8261 25 47.8261C12.3806 47.8261 2.17391 37.6194 2.17391 25C2.17391 12.3806 12.3806 2.17391 25 2.17391ZM34.8781 13.0817C34.1347 13.0817 33.2993 13.2539 32.3221 13.6061C30.8047 14.1528 12.9573 21.7306 10.9269 22.5926C9.76602 23.086 7.60445 24.004 7.60445 26.1931C7.60445 27.6442 8.45474 28.6821 10.1287 29.2799C11.0287 29.6005 13.1662 30.2485 14.4064 30.5898C14.9325 30.7343 15.4916 30.8084 16.0666 30.8084C17.1916 30.8084 18.3237 30.5281 19.2107 30.0335C19.2031 30.2162 19.208 30.4007 19.2298 30.5855C19.3635 31.7268 20.0673 32.8003 21.1107 33.4579C21.7933 33.8883 27.3688 37.6241 28.2014 38.2176C29.371 39.0534 30.6639 39.4956 31.9378 39.4956C34.3726 39.4956 35.1895 36.9816 35.583 35.774C36.1536 34.0208 38.2905 19.7632 38.5318 17.2491C38.6959 15.5262 37.9779 14.1076 36.6105 13.4532C36.0985 13.2065 35.514 13.0817 34.8781 13.0817ZM34.8781 15.2556C35.1771 15.2556 35.4439 15.305 35.67 15.4148C36.1841 15.6616 36.4457 16.2116 36.3663 17.0431C36.1033 19.7855 33.9717 33.7054 33.5173 35.1011C33.1282 36.2945 32.7183 37.3217 31.9378 37.3217C31.1574 37.3217 30.3048 37.0481 29.4646 36.447C28.6244 35.847 23.0449 32.1053 22.2699 31.6173C21.5905 31.189 20.8715 30.1214 21.8835 29.0888C22.7172 28.2388 29.0411 22.101 29.5814 21.5608C29.9835 21.1575 29.7955 20.6713 29.4009 20.6713C29.265 20.6713 29.1023 20.7285 28.9338 20.8666C28.273 21.4068 19.0595 27.572 18.2617 28.0677C17.7335 28.3959 16.9155 28.6324 16.0666 28.6324C15.7046 28.6324 15.3382 28.589 14.986 28.4923C13.7599 28.1542 11.685 27.5247 10.8611 27.2312C10.0687 26.9486 9.78049 26.6779 9.78049 26.1931C9.78049 25.504 10.7532 25.0283 11.7782 24.5924C12.8608 24.1326 31.5935 16.1776 33.0588 15.6505C33.737 15.4048 34.3575 15.2556 34.8781 15.2556Z" fill="white"/>
</svg>
