<svg width="31" height="31" viewBox="0 0 31 31" fill="none" xmlns="http://www.w3.org/2000/svg">
<path d="M15.2941 0C6.85529 0 0 6.85529 0 15.2941C0 23.7329 6.85529 30.5882 15.2941 30.5882C23.7329 30.5882 30.5882 23.7329 30.5882 15.2941C30.5882 6.85529 23.7329 0 15.2941 0ZM15.2941 1.32992C23.0142 1.32992 29.2583 7.57403 29.2583 15.2941C29.2583 23.0142 23.0142 29.2583 15.2941 29.2583C7.57403 29.2583 1.32992 23.0142 1.32992 15.2941C1.32992 7.57403 7.57403 1.32992 15.2941 1.32992ZM8.6458 10.6394L5.96258 10.6407C5.96258 10.6407 5.80904 10.632 5.6236 10.6563C5.43817 10.6805 5.16422 10.6918 4.88331 11.0095L4.88201 11.0108L4.88071 11.0121C4.63085 11.2979 4.64038 11.6305 4.67162 11.8135C4.70274 11.9958 4.77292 12.133 4.77292 12.133V12.1343C4.79872 12.1975 6.74695 16.9711 9.20297 19.5358C10.9354 21.3461 12.7881 21.9437 14.4382 21.9437H15.2941C15.5757 21.9437 15.8272 21.9309 16.1058 21.7866C16.3845 21.6422 16.624 21.2439 16.624 20.9346C16.624 20.6013 16.6322 20.2783 16.6747 20.0982C16.7144 19.93 16.699 19.9713 16.715 19.9709C16.7309 19.9744 16.7599 19.9811 16.815 20.006C16.9336 20.0596 17.1169 20.1793 17.3202 20.3372C17.7261 20.6523 18.207 21.1096 18.7462 21.4632C19.5185 21.9751 20.3567 21.9437 20.3567 21.9437H23.1204L23.1503 21.9411C23.1503 21.9411 23.5744 21.9315 24.0101 21.6645C24.2279 21.531 24.4868 21.2861 24.5737 20.919C24.6606 20.5519 24.5496 20.1668 24.336 19.8281C24.258 19.7038 23.8792 19.1548 22.3671 17.8124C21.9765 17.4659 21.7101 17.2207 21.6048 17.0903C21.5674 17.044 21.5642 17.0485 21.5567 17.0461C21.5655 17.0234 21.6529 16.8394 21.8866 16.5357C22.1302 16.2192 22.5003 15.7782 22.9762 15.172C23.5828 14.3992 24.0085 13.6561 24.2763 13.0291C24.4102 12.7156 24.5051 12.4311 24.562 12.1732C24.6189 11.9153 24.6643 11.701 24.5802 11.3953C24.5175 11.1677 24.3472 10.9639 24.1802 10.8563C24.0132 10.7487 23.8576 10.7082 23.7178 10.6822C23.4384 10.6304 23.1918 10.6394 22.962 10.6394C22.4807 10.6394 20.341 10.6563 20.1644 10.6563C19.9572 10.6563 19.6265 10.7426 19.4735 10.8303C19.0936 11.0478 18.9748 11.3459 18.9748 11.3459L18.9384 11.4095L18.9176 11.481C18.9176 11.481 18.4304 13.0571 17.9293 13.8694H17.928C17.3387 14.8263 16.8991 15.2059 16.7059 15.3136C16.6853 15.325 16.6967 15.319 16.6825 15.3266C16.6674 15.2826 16.6483 15.2219 16.6357 15.1097C16.6075 14.8569 16.624 14.5008 16.624 14.1564C16.624 13.2026 16.6957 12.6078 16.6162 12.0446C16.5765 11.7631 16.4754 11.4495 16.2448 11.2082C16.0142 10.967 15.7163 10.8483 15.4188 10.7797H15.4175C15.1075 10.7083 14.7734 10.6469 13.9707 10.6394C12.948 10.6299 12.2819 10.6616 11.6901 10.9251L11.6836 10.929L11.6784 10.9316C11.4445 11.0415 11.2602 11.1674 11.0978 11.3355C11.0167 11.4196 10.9204 11.4808 10.8537 11.7485C10.8203 11.8824 10.8167 12.1356 10.968 12.3408C11.1193 12.5459 11.3313 12.6078 11.4563 12.6239C11.4332 12.6209 11.5547 12.6476 11.6485 12.694C11.7424 12.7404 11.8239 12.8072 11.8446 12.8343V12.8356C11.836 12.8243 11.9261 13.0483 11.9498 13.2525C11.9736 13.4567 11.9693 13.6213 11.9693 13.6213L11.968 13.6616L11.9719 13.7018C11.9719 13.7018 12.0127 14.1537 11.9914 14.6201C11.9807 14.8533 11.9512 15.088 11.9122 15.2318C11.9101 15.2394 11.9092 15.2367 11.907 15.2435C11.7405 15.1272 11.3566 14.722 10.8277 13.8486C10.3388 13.0406 9.88091 11.5875 9.88091 11.5875L9.87052 11.555L9.85884 11.5238C9.85884 11.5238 9.77347 11.1992 9.39648 10.9342C9.04313 10.6855 8.70684 10.6511 8.70684 10.6511L8.6458 10.6394ZM8.49125 11.9693C8.52928 11.9832 8.6088 12.0119 8.62372 12.0187L8.60814 11.9719L8.62892 12.02L8.63151 12.0213V12.0226H8.63281C8.59939 11.9992 8.62772 12.0224 8.63151 12.0278C8.64988 12.0904 9.05591 13.489 9.69 14.5369C10.2676 15.4909 10.6944 16.0254 11.1602 16.3448C11.6255 16.664 12.2513 16.6311 12.5693 16.4656C12.9944 16.2448 13.1132 15.882 13.1953 15.5798C13.2774 15.2776 13.3067 14.9711 13.32 14.6811C13.3453 14.1279 13.302 13.6753 13.2979 13.6304C13.2986 13.6054 13.3045 13.3893 13.2707 13.0979C13.2365 12.8044 13.1753 12.4395 12.9148 12.0732C13.2066 12.0298 13.3687 11.9638 13.9577 11.9693C14.7089 11.9764 14.8231 12.0077 15.1188 12.0758C15.2798 12.1129 15.2977 12.1437 15.2824 12.1278C15.2672 12.1118 15.2811 12.1012 15.2993 12.2304C15.3358 12.4887 15.2941 13.1513 15.2941 14.1564C15.2941 14.4397 15.2668 14.8393 15.3136 15.2578C15.3604 15.6759 15.4911 16.211 15.9967 16.524C16.2848 16.7023 16.8352 16.7637 17.3539 16.4747C17.8727 16.1857 18.405 15.6313 19.0605 14.5668C19.708 13.5172 20.0953 12.1373 20.1372 11.9914C20.1372 11.9914 20.1446 11.9866 20.1489 11.9836C20.1606 11.9842 20.1457 11.9862 20.1644 11.9862C20.4108 11.9862 22.5123 11.9693 22.962 11.9693C23.0857 11.9693 23.14 11.976 23.2321 11.9797C23.1949 12.1233 23.1448 12.2904 23.0529 12.5057C22.8368 13.0116 22.4659 13.6678 21.9294 14.3512C21.4671 14.94 21.108 15.3671 20.8333 15.724C20.5586 16.0809 20.3429 16.3624 20.2528 16.7695C20.1626 17.1766 20.3346 17.6357 20.5697 17.9267C20.8047 18.2177 21.0956 18.4628 21.484 18.8072C22.9469 20.1061 23.187 20.4992 23.21 20.5359V20.5372C23.2347 20.5764 23.2187 20.537 23.2282 20.5567C23.1452 20.5825 23.0465 20.6118 23.0373 20.6138H20.3463H20.3424C20.3424 20.6138 19.8474 20.5976 19.48 20.3541L19.4787 20.3528H19.4774C19.0887 20.0982 18.6189 19.6616 18.1358 19.2865C17.8942 19.0989 17.6483 18.9232 17.363 18.7943C17.0778 18.6653 16.7162 18.5739 16.3357 18.6878C15.785 18.8526 15.4793 19.3768 15.3811 19.793C15.3107 20.0918 15.3211 20.3516 15.3188 20.6125C15.2998 20.6135 15.3162 20.6138 15.2941 20.6138H14.4382C13.0867 20.6138 11.6806 20.2012 10.164 18.6163C8.19232 16.5573 6.43315 12.5755 6.16908 11.9706L8.49125 11.9693ZM20.0904 11.9745C20.0783 11.9772 20.1129 11.9798 20.1411 11.9823C20.1372 11.9844 20.1414 11.9805 20.1359 11.9836C20.1353 11.9725 20.1066 11.9709 20.0904 11.9745Z" fill="black"/>
</svg>
