<svg width="50" height="50" viewBox="0 0 50 50" fill="none" xmlns="http://www.w3.org/2000/svg">
<path d="M25 0C11.2058 0 0 11.2058 0 25C0 38.7942 11.2058 50 25 50C38.7942 50 50 38.7942 50 25C50 11.2058 38.7942 0 25 0ZM25 2.17391C37.6194 2.17391 47.8261 12.3806 47.8261 25C47.8261 37.6194 37.6194 47.8261 25 47.8261C12.3806 47.8261 2.17391 37.6194 2.17391 25C2.17391 12.3806 12.3806 2.17391 25 2.17391ZM14.1326 17.3913L9.74652 17.3934C9.74652 17.3934 9.49554 17.3793 9.19242 17.4189C8.88931 17.4585 8.44152 17.4769 7.98234 17.9963L7.98021 17.9985L7.97809 18.0006C7.56965 18.4677 7.58524 19.0113 7.63629 19.3105C7.68716 19.6085 7.80189 19.8327 7.80189 19.8327V19.8348C7.84405 19.9383 11.0287 27.7412 15.0433 31.9336C17.8751 34.8927 20.9037 35.8696 23.601 35.8696H25C25.4603 35.8696 25.8714 35.8486 26.3269 35.6127C26.7823 35.3768 27.1739 34.7256 27.1739 34.22C27.1739 33.6753 27.1873 33.1472 27.2567 32.8528C27.3215 32.578 27.2965 32.6454 27.3225 32.6448C27.3486 32.6504 27.396 32.6614 27.486 32.7021C27.6799 32.7898 27.9795 32.9855 28.3118 33.2435C28.9754 33.7586 29.7614 34.506 30.6428 35.0841C31.9053 35.9208 33.2753 35.8696 33.2753 35.8696H37.793L37.8418 35.8653C37.8418 35.8653 38.535 35.8496 39.2472 35.4131C39.6033 35.1949 40.0265 34.7946 40.1686 34.1945C40.3106 33.5945 40.1292 32.9649 39.7801 32.4113C39.6525 32.2082 39.0333 31.3107 36.5616 29.1164C35.9231 28.5501 35.4876 28.1492 35.3155 27.9361C35.2543 27.8604 35.2492 27.8677 35.2369 27.8639C35.2513 27.8267 35.3941 27.526 35.7762 27.0296C36.1743 26.5122 36.7793 25.7912 37.5573 24.8004C38.5489 23.5372 39.2446 22.3225 39.6824 21.2976C39.9013 20.7851 40.0565 20.3201 40.1495 19.8985C40.2424 19.477 40.3166 19.1266 40.1792 18.6269C40.0767 18.2549 39.7982 17.9217 39.5253 17.7458C39.2524 17.57 38.9979 17.5037 38.7695 17.4614C38.3127 17.3766 37.9097 17.3913 37.534 17.3913C36.7472 17.3913 33.2498 17.4189 32.9611 17.4189C32.6223 17.4189 32.0818 17.56 31.8317 17.7034C31.2108 18.059 31.0165 18.5462 31.0165 18.5462L30.957 18.6502L30.9231 18.767C30.9231 18.767 30.1267 21.3433 29.3075 22.6711H29.3054C28.3421 24.2354 27.6236 24.8558 27.3077 25.0318C27.2741 25.0505 27.2927 25.0406 27.2694 25.0531C27.2447 24.9811 27.2136 24.882 27.193 24.6985C27.1468 24.2852 27.1739 23.7032 27.1739 23.1403C27.1739 21.5811 27.291 20.6089 27.1612 19.6883C27.0963 19.2281 26.931 18.7155 26.554 18.3212C26.177 17.9268 25.6901 17.7327 25.2038 17.6206H25.2017C24.6949 17.5039 24.1488 17.4037 22.8367 17.3913C21.165 17.3757 20.0762 17.4275 19.1088 17.8584L19.0982 17.8647L19.0897 17.869C18.7074 18.0485 18.4061 18.2543 18.1407 18.5292C18.008 18.6666 17.8506 18.7667 17.7416 19.2043C17.6871 19.4231 17.6811 19.8371 17.9284 20.1724C18.1757 20.5077 18.5223 20.6089 18.7266 20.6352C18.689 20.6303 18.8874 20.674 19.0408 20.7498C19.1943 20.8257 19.3275 20.9349 19.3614 20.9791V20.9812C19.3472 20.9628 19.4946 21.329 19.5334 21.6627C19.5722 21.9964 19.5652 22.2656 19.5652 22.2656L19.5631 22.3314L19.5695 22.3972C19.5695 22.3972 19.6362 23.1358 19.6013 23.8982C19.5839 24.2794 19.5357 24.6631 19.4718 24.8981C19.4684 24.9105 19.4669 24.9062 19.4633 24.9172C19.1912 24.7271 18.5636 24.0649 17.6991 22.6371C16.9 21.3164 16.1515 18.9411 16.1515 18.9411L16.1345 18.888L16.1154 18.837C16.1154 18.837 15.9759 18.3064 15.3596 17.8732C14.782 17.4666 14.2323 17.4104 14.2323 17.4104L14.1326 17.3913ZM13.8799 19.5652C13.9421 19.5879 14.0721 19.6348 14.0965 19.6459L14.071 19.5695L14.105 19.648L14.1092 19.6501V19.6523H14.1113C14.0567 19.614 14.103 19.652 14.1092 19.6607C14.1392 19.7632 14.8029 22.0494 15.8394 23.7623C16.7836 25.3217 17.4812 26.1953 18.2426 26.7175C19.0033 27.2392 20.0261 27.1854 20.546 26.9149C21.2408 26.5541 21.4351 25.961 21.5693 25.4671C21.7035 24.9731 21.7514 24.4719 21.7731 23.998C21.8145 23.0936 21.7437 22.3538 21.737 22.2805C21.7381 22.2396 21.7478 21.8863 21.6924 21.4101C21.6366 20.9302 21.5366 20.3339 21.1107 19.7351C21.5878 19.6642 21.8526 19.5562 22.8155 19.5652C24.0433 19.5768 24.2301 19.628 24.7134 19.7393C24.9766 19.8 25.0058 19.8503 24.9809 19.8242C24.956 19.7982 24.9787 19.7807 25.0085 19.9919C25.0681 20.4142 25 21.4973 25 23.1403C25 23.6034 24.9553 24.2566 25.0318 24.9406C25.1084 25.6241 25.322 26.4987 26.1485 27.0104C26.6195 27.3019 27.5191 27.4021 28.367 26.9298C29.2149 26.4574 30.0851 25.5512 31.1566 23.8111C32.2151 22.0954 32.848 19.8397 32.9165 19.6013C32.9165 19.6013 32.9286 19.5935 32.9356 19.5886C32.9548 19.5895 32.9304 19.5928 32.9611 19.5928C33.3637 19.5928 36.799 19.5652 37.534 19.5652C37.7362 19.5652 37.825 19.5761 37.9755 19.5822C37.9147 19.8169 37.8329 20.0902 37.6826 20.442C37.3293 21.269 36.7231 22.3415 35.8462 23.4587C35.0905 24.4212 34.5034 25.1193 34.0544 25.7027C33.6055 26.2861 33.2528 26.7463 33.1055 27.4117C32.9582 28.0771 33.2392 28.8275 33.6235 29.3032C34.0077 29.7789 34.4832 30.1796 35.118 30.7426C37.5094 32.8657 37.9018 33.5083 37.9395 33.5683V33.5704C37.9798 33.6344 37.9537 33.57 37.9692 33.6022C37.8336 33.6445 37.6722 33.6923 37.6571 33.6957H33.2583H33.252C33.252 33.6957 32.4429 33.6691 31.8423 33.2711L31.8402 33.2689H31.8381C31.2027 32.8528 30.4348 32.1391 29.645 31.526C29.2502 31.2194 28.8482 30.9322 28.3819 30.7214C27.9156 30.5106 27.3246 30.3611 26.7026 30.5473C25.8023 30.8168 25.3027 31.6736 25.1422 32.3539C25.027 32.8424 25.0441 33.2671 25.0403 33.6935C25.0093 33.6952 25.0362 33.6957 25 33.6957H23.601C21.3917 33.6957 19.0934 33.0212 16.6143 30.4305C13.3913 27.0648 10.5157 20.5561 10.0841 19.5673L13.8799 19.5652ZM32.8401 19.5737C32.8204 19.5781 32.8768 19.5824 32.9229 19.5864C32.9167 19.5898 32.9234 19.5835 32.9144 19.5886C32.9135 19.5704 32.8666 19.5678 32.8401 19.5737Z" fill="white"/>
</svg>
