<svg width="31" height="31" viewBox="0 0 31 31" fill="none" xmlns="http://www.w3.org/2000/svg">
<path d="M15.7059 0C7.26719 0 0.411743 6.85544 0.411743 15.2941C0.411743 18.0066 1.15563 20.5379 2.39624 22.7477L0.436419 29.744C0.40511 29.856 0.403695 29.9742 0.432316 30.0869C0.460938 30.1996 0.518596 30.3028 0.599541 30.3862C0.680487 30.4696 0.781891 30.5304 0.893645 30.5624C1.0054 30.5945 1.1236 30.5966 1.23645 30.5688L8.53155 28.7609C10.6752 29.9053 13.1076 30.5882 15.7059 30.5882C24.1445 30.5882 31 23.7328 31 15.2941C31 6.85544 24.1445 0 15.7059 0ZM15.7059 1.32992C23.4258 1.32992 29.6701 7.57422 29.6701 15.2941C29.6701 23.014 23.4258 29.2583 15.7059 29.2583C13.2309 29.2583 10.9129 28.6131 8.8978 27.4855C8.75042 27.4032 8.57723 27.3799 8.41336 27.4206L2.02479 29.0038L3.73785 22.8918C3.76236 22.8055 3.76913 22.715 3.75775 22.6259C3.74636 22.5369 3.71706 22.4511 3.67161 22.3736C2.44698 20.297 1.74167 17.8809 1.74167 15.2941C1.74167 7.57422 7.98597 1.32992 15.7059 1.32992ZM10.1485 7.31458C9.72223 7.31458 9.11346 7.47316 8.61337 8.01201C8.313 8.33566 7.06136 9.55517 7.06136 11.6992C7.06136 13.9345 8.61165 15.8632 8.79909 16.111H8.80039V16.1123C8.78261 16.089 9.03831 16.4593 9.37963 16.9033C9.72096 17.3473 10.1983 17.9305 10.7979 18.5618C11.9971 19.8244 13.6832 21.2837 15.776 22.1762C16.7397 22.5866 17.5 22.8344 18.0761 23.0152C19.1436 23.3504 20.1159 23.2995 20.8463 23.1918C21.393 23.1113 21.9943 22.8488 22.5893 22.4723C23.1842 22.0958 23.7673 21.6277 24.0244 20.9164C24.2086 20.4065 24.3022 19.9353 24.3361 19.5475C24.353 19.3537 24.3552 19.1825 24.3426 19.0241C24.33 18.8657 24.3434 18.7444 24.1958 18.502C23.8862 17.9937 23.5356 17.9805 23.1698 17.7994C22.9665 17.6988 22.3878 17.4162 21.8074 17.1396C21.2276 16.8634 20.7256 16.6187 20.4164 16.5085C20.2211 16.4382 19.9826 16.337 19.6385 16.376C19.2944 16.4149 18.9545 16.6632 18.7566 16.9565C18.5691 17.2345 17.814 18.1258 17.5839 18.3877C17.5808 18.3859 17.6008 18.3951 17.5098 18.3501C17.2251 18.2092 16.877 18.0894 16.3617 17.8176C15.8465 17.5458 15.202 17.1445 14.4967 16.5227V16.5214C13.447 15.5973 12.7117 14.4371 12.4798 14.0473C12.4954 14.0287 12.4779 14.0512 12.5109 14.0187L12.5122 14.0174C12.7493 13.7839 12.9594 13.5051 13.1369 13.3005C13.3886 13.0106 13.4997 12.7549 13.6201 12.5161C13.8599 12.0401 13.7264 11.5163 13.5876 11.2407V11.2394C13.5972 11.2585 13.5125 11.0717 13.4214 10.8563C13.3299 10.6402 13.2134 10.3601 13.0889 10.0614C12.8399 9.46407 12.5619 8.79406 12.3966 8.40163V8.40034C12.2019 7.9381 11.9385 7.6051 11.594 7.44445C11.2496 7.2838 10.9453 7.32947 10.9329 7.32886H10.9316C10.6858 7.31753 10.4161 7.31458 10.1485 7.31458ZM10.1485 8.6445C10.4049 8.6445 10.6576 8.64763 10.8693 8.65749C11.0871 8.66834 11.0735 8.66923 11.0316 8.6497C10.9891 8.62985 11.0468 8.62341 11.1706 8.91724C11.3325 9.30149 11.6118 9.97393 11.8616 10.5732C11.9864 10.8728 12.1033 11.1539 12.1966 11.3745C12.29 11.595 12.3405 11.7182 12.3992 11.8355V11.8368L12.4005 11.8381C12.4581 11.9517 12.453 11.879 12.433 11.9187C12.2927 12.1972 12.2736 12.2655 12.1317 12.4291C11.9156 12.6781 11.6951 12.9557 11.5784 13.0707C11.4763 13.1709 11.2921 13.3272 11.1771 13.633C11.0619 13.9393 11.1157 14.3596 11.3005 14.6733C11.5465 15.091 12.3574 16.4108 13.6175 17.5202C14.411 18.2197 15.1503 18.6827 15.7409 18.9943C16.3315 19.3058 16.8126 19.4878 16.9202 19.541C17.1758 19.6675 17.4551 19.7658 17.78 19.7268C18.1048 19.6878 18.3848 19.4907 18.5631 19.2891L18.5644 19.2878C18.8017 19.0188 19.5067 18.2138 19.845 17.7176C19.8593 17.7226 19.8546 17.7187 19.9671 17.7592V17.7605H19.9684C20.0197 17.7787 20.6627 18.0665 21.236 18.3397C21.8092 18.6129 22.3911 18.8968 22.5802 18.9904C22.853 19.1254 22.9819 19.2133 23.0152 19.2138C23.0175 19.2723 23.0198 19.3357 23.0113 19.4319C22.988 19.699 22.9166 20.0687 22.7737 20.4645C22.7036 20.6582 22.3389 21.0578 21.8788 21.3489C21.4188 21.64 20.8589 21.8457 20.6515 21.8762C20.028 21.9681 19.2878 22.0016 18.4748 21.7463C17.9111 21.5694 17.2082 21.3403 16.2981 20.9528C14.4523 20.1656 12.8835 18.8261 11.7628 17.6462C11.2025 17.0562 10.7536 16.507 10.4342 16.0916C10.1154 15.6769 9.97624 15.4611 9.86017 15.3084L9.85887 15.3071C9.65285 15.0347 8.39128 13.2798 8.39128 11.6992C8.39128 10.0263 9.16829 9.37027 9.58873 8.91724C9.80946 8.67941 10.0508 8.6445 10.1485 8.6445Z" fill="black"/>
</svg>
